<svg viewBox="0 0 20 10" xmlns="http://www.w3.org/2000/svg">
    <rect x="0%" y="0%" width="100%" height="100%" fill="#25292e" />
    <g transform="scale(0.75) translate(0 -1)" transform-origin="center center">
        <rect x="0%" y="00%" width="100%" height="100%" fill="#25292e" />
        <g mask="url(#textMask)">
            <g>
                <rect x="0%" y="00%" width="100%" height="2.5%" fill="#56b3b4" />
                <rect x="0%" y="04%" width="100%" height="2.5%" fill="#ea5e5e" />
                <rect x="0%" y="08%" width="100%" height="2.5%" fill="#f7ba3e" />
                <rect x="0%" y="12%" width="100%" height="2.5%" fill="#bf85bf" />
                <rect x="0%" y="16%" width="100%" height="2.5%" fill="#56b3b4" />
                <rect x="0%" y="20%" width="100%" height="2.5%" fill="#ea5e5e" />
                <rect x="0%" y="24%" width="100%" height="2.5%" fill="#f7ba3e" />
                <rect x="0%" y="28%" width="100%" height="2.5%" fill="#bf85bf" />
                <rect x="0%" y="32%" width="100%" height="2.5%" fill="#56b3b4" />
                <rect x="0%" y="36%" width="100%" height="2.5%" fill="#ea5e5e" />
                <rect x="0%" y="40%" width="100%" height="2.5%" fill="#f7ba3e" />
                <rect x="0%" y="44%" width="100%" height="2.5%" fill="#bf85bf" />
                <rect x="0%" y="48%" width="100%" height="2.5%" fill="#56b3b4" />
                <rect x="0%" y="52%" width="100%" height="2.5%" fill="#ea5e5e" />
                <rect x="0%" y="56%" width="100%" height="2.5%" fill="#f7ba3e" />
                <rect x="0%" y="60%" width="100%" height="2.5%" fill="#bf85bf" />
                <rect x="0%" y="64%" width="100%" height="2.5%" fill="#56b3b4" />
                <rect x="0%" y="68%" width="100%" height="2.5%" fill="#ea5e5e" />
                <rect x="0%" y="72%" width="100%" height="2.5%" fill="#f7ba3e" />
                <rect x="0%" y="76%" width="100%" height="2.5%" fill="#bf85bf" />
                <rect x="0%" y="80%" width="100%" height="2.5%" fill="#56b3b4" />
                <rect x="0%" y="84%" width="100%" height="2.5%" fill="#ea5e5e" />
                <rect x="0%" y="88%" width="100%" height="2.5%" fill="#f7ba3e" />
                <rect x="0%" y="92%" width="100%" height="2.5%" fill="#bf85bf" />
                <rect x="0%" y="96%" width="100%" height="2.5%" fill="#56b3b4" />
            </g>
            <mask id="textMask">
                <text x="50%" y="50%" font-family="Eras ITC" font-size="10" font-weight="bold" fill="white"
                    dominant-baseline="central" text-anchor="middle">C</text>
            </mask>
        </g>
    </g>
    <text x="50%" y="9" font-family="Eras ITC" font-size="1" dominant-baseline="central" text-anchor="middle">
        <tspan fill="#56b3b4">C</tspan><tspan fill="#ea5e5e">O</tspan><tspan fill="#f7ba3e">L</tspan><tspan fill="#bf85bf">O</tspan><tspan fill="#56b3b4">R</tspan>
        <tspan fill="#ea5e5e">M</tspan><tspan fill="#f7ba3e">Y</tspan>
        <tspan fill="#bf85bf">T</tspan><tspan fill="#56b3b4">E</tspan><tspan fill="#ea5e5e">X</tspan><tspan fill="#f7ba3e">T</tspan>
    </text>
</svg>